TITLE ""
FILE "Step6_Track73.mp3" MP3
  TRACK 01 AUDIO
    TITLE "Step6_Track73_01"
    INDEX 01 00:00:00
  TRACK 02 AUDIO
    TITLE "Step6_Track73_02"
    INDEX 01 00:00:24
  TRACK 03 AUDIO
    TITLE "Step6_Track73_03"
    INDEX 01 00:01:72
  TRACK 04 AUDIO
    TITLE "Step6_Track73_04"
    INDEX 01 00:02:50
  TRACK 05 AUDIO
    TITLE "Step6_Track73_05"
    INDEX 01 00:03:44
  TRACK 06 AUDIO
    TITLE "Step6_Track73_06"
    INDEX 01 00:03:62
  TRACK 07 AUDIO
    TITLE "Step6_Track73_07"
    INDEX 01 00:05:57
  TRACK 08 AUDIO
    TITLE "Step6_Track73_08"
    INDEX 01 00:05:58
  TRACK 09 AUDIO
    TITLE "Step6_Track73_09"
    INDEX 01 00:06:54
  TRACK 10 AUDIO
    TITLE "Step6_Track73_10"
    INDEX 01 00:06:56
  TRACK 11 AUDIO
    TITLE "Step6_Track73_11"
    INDEX 01 00:08:12
  TRACK 12 AUDIO
    TITLE "Step6_Track73_12"
    INDEX 01 00:08:33
  TRACK 13 AUDIO
    TITLE "Step6_Track73_13"
    INDEX 01 00:09:25
  TRACK 14 AUDIO
    TITLE "Step6_Track73_14"
    INDEX 01 00:09:27
  TRACK 15 AUDIO
    TITLE "Step6_Track73_15"
    INDEX 01 00:10:50
  TRACK 16 AUDIO
    TITLE "Step6_Track73_16"
    INDEX 01 00:11:39
  TRACK 17 AUDIO
    TITLE "Step6_Track73_17"
    INDEX 01 00:12:31
  TRACK 18 AUDIO
    TITLE "Step6_Track73_18"
    INDEX 01 00:12:62
  TRACK 19 AUDIO
    TITLE "Step6_Track73_19"
    INDEX 01 00:15:27
  TRACK 20 AUDIO
    TITLE "Step6_Track73_20"
    INDEX 01 00:15:69
  TRACK 21 AUDIO
    TITLE "Step6_Track73_21"
    INDEX 01 00:16:70
  TRACK 22 AUDIO
    TITLE "Step6_Track73_22"
    INDEX 01 00:16:72
  TRACK 23 AUDIO
    TITLE "Step6_Track73_23"
    INDEX 01 00:18:32
  TRACK 24 AUDIO
    TITLE "Step6_Track73_24"
    INDEX 01 00:18:55
  TRACK 25 AUDIO
    TITLE "Step6_Track73_25"
    INDEX 01 00:19:47
  TRACK 26 AUDIO
    TITLE "Step6_Track73_26"
    INDEX 01 00:19:49
  TRACK 27 AUDIO
    TITLE "Step6_Track73_27"
    INDEX 01 00:21:12
  TRACK 28 AUDIO
    TITLE "Step6_Track73_28"
    INDEX 01 00:21:59
  TRACK 29 AUDIO
    TITLE "Step6_Track73_29"
    INDEX 01 00:22:53
  TRACK 30 AUDIO
    TITLE "Step6_Track73_30"
    INDEX 01 00:23:03
  TRACK 31 AUDIO
    TITLE "Step6_Track73_31"
    INDEX 01 00:25:02
  TRACK 32 AUDIO
    TITLE "Step6_Track73_32"
    INDEX 01 00:25:28
  TRACK 33 AUDIO
    TITLE "Step6_Track73_33"
    INDEX 01 00:26:18
  TRACK 34 AUDIO
    TITLE "Step6_Track73_34"
    INDEX 01 00:26:25
  TRACK 35 AUDIO
    TITLE "Step6_Track73_35"
    INDEX 01 00:27:62
  TRACK 36 AUDIO
    TITLE "Step6_Track73_36"
    INDEX 01 00:28:16
  TRACK 37 AUDIO
    TITLE "Step6_Track73_37"
    INDEX 01 00:29:04
  TRACK 38 AUDIO
    TITLE "Step6_Track73_38"
    INDEX 01 00:29:06
  TRACK 39 AUDIO
    TITLE "Step6_Track73_39"
    INDEX 01 00:30:31
  TRACK 40 AUDIO
    TITLE "Step6_Track73_40"
    INDEX 01 00:31:23
  TRACK 41 AUDIO
    TITLE "Step6_Track73_41"
    INDEX 01 00:32:20
  TRACK 42 AUDIO
    TITLE "Step6_Track73_42"
    INDEX 01 00:32:44
  TRACK 43 AUDIO
    TITLE "Step6_Track73_43"
    INDEX 01 00:34:23
  TRACK 44 AUDIO
    TITLE "Step6_Track73_44"
    INDEX 01 00:34:44
  TRACK 45 AUDIO
    TITLE "Step6_Track73_45"
    INDEX 01 00:35:38
  TRACK 46 AUDIO
    TITLE "Step6_Track73_46"
    INDEX 01 00:35:42
  TRACK 47 AUDIO
    TITLE "Step6_Track73_47"
    INDEX 01 00:37:02
  TRACK 48 AUDIO
    TITLE "Step6_Track73_48"
    INDEX 01 00:37:33
  TRACK 49 AUDIO
    TITLE "Step6_Track73_49"
    INDEX 01 00:38:21
  TRACK 50 AUDIO
    TITLE "Step6_Track73_50"
    INDEX 01 00:38:23
  TRACK 51 AUDIO
    TITLE "Step6_Track73_51"
    INDEX 01 00:39:67
